<?xml version="1.0" encoding="utf-8"?>
<!-- Svg Vector Icons : http://www.onlinewebfonts.com/icon -->
<!DOCTYPE svg PUBLIC "-//W3C//DTD SVG 1.1//EN" "http://www.w3.org/Graphics/SVG/1.1/DTD/svg11.dtd">
<svg version="1.1" xmlns="http://www.w3.org/2000/svg" xmlns:xlink="http://www.w3.org/1999/xlink" x="0px" y="0px" viewBox="0 0 1000 1000" enable-background="new 0 0 1000 1000" xml:space="preserve">
<metadata> Svg Vector Icons : http://www.onlinewebfonts.com/icon </metadata>
<g><path d="M980.1,876.3c1.7-0.7,3.4-1.3,5.1-1.7c-0.3-0.2-0.6-0.4-0.9-0.6c-1.5,0.8-3,1.6-4.6,2.3C979.9,876.3,980,876.3,980.1,876.3z"/><path d="M985.3,859.1c1.7-1.4,3.3-3,4.7-4.7c-0.3,0-0.5-0.1-0.8-0.1c-1.5,0.7-3,1.5-4.5,2.3c-0.3,0.3-0.6,0.5-0.9,0.8c0.3,0.4,0.6,0.8,0.9,1.2C985,858.8,985.1,858.9,985.3,859.1z"/><path d="M195,475.2c23.2,20.2,28.4,56.2,17.9,97.1c30-68.1,75.3-111.4,126-111.4c88.7,0,160.9,132.9,163.6,298.8h1.2c2-167,74.5-301.2,163.6-301.2c54.3,0,102.4,49.8,132.2,126.4c-5.9-56.7,9.4-103.4,43.9-119.1c37.5-17,87.6,7.1,128.4,56.4c1.5-49.3-6.7-109-25.3-171.1C910.8,232.3,848,141.9,793.7,123.7c22.5,36.6,43.5,86.1,17.2,112.2c-42.7,42.3-207.6,24-219.7,11.7c-10.5-10.6-15.9-37.9-15.9-37.9s0,0,0.1-0.1h-0.5v-40.2l-2-40.5l-36.5,40.5h-67.7l-37.8-39.8l-0.7,39.8v40.2h-0.6c0.4,0.9,0.6,1.7,0.6,2.3c0,27-51.3,48.9-114.6,48.9s-114.6-21.9-114.6-48.9c0-8.9,6.4-56.4,27.3-87.4C172.7,137.8,101.5,220.8,54,334.3C23.9,406.2,9.2,476.2,10,530.3C74.9,465.1,154.8,440.2,195,475.2z"/></g>
</svg>